<?xml version="1.0" standalone="no"?>
<!DOCTYPE svg PUBLIC "-//W3C//DTD SVG 1.1//EN" "http://www.w3.org/Graphics/SVG/1.1/DTD/svg11.dtd" >
<svg xmlns="http://www.w3.org/2000/svg">
<metadata>Generated by IcoMoon</metadata>
<defs>
<font id="icomoon" horiz-adv-x="1024">
<font-face units-per-em="1024" ascent="960" descent="-64" />
<missing-glyph horiz-adv-x="1024" />
<glyph unicode="&#x20;" horiz-adv-x="512" d="" />
<glyph unicode="&#xe900;" horiz-adv-x="626" d="M551.361 692.070l-1.536 1.593c-14.677 14.677-33.849 22.812-53.931 22.812-8.476 0-15.076-1.707-18.546-2.56l-90.795-22.471 45.796 124.018c4.21 9.614 6.428 19.399 6.428 29.127 0 40.448-33.564 73.33-74.809 73.33h-156.217c-34.247 0-64.057-22.642-72.818-55.979l-96.085-394.468c-5.575-26.453 3.698-53.532 23.154-69.746 13.426-11.776 31.63-18.489 50.005-18.489 3.356 0 10.354 0 18.603 2.048l107.748 26.852-72.988-299.52c-8.875-37.433 12.686-74.581 50.062-86.471l5.575-1.479c6.144-1.195 12.345-1.991 17.237-1.991 28.103 0 53.76 15.36 68.324 42.667l257.195 551.14c12.459 26.567 7.566 57.856-12.402 79.588z" />
<glyph unicode="&#xe901;" horiz-adv-x="626" d="M285.224 455.236l-86.414-354.702c-4.779-19.854 6.599-39.14 27.079-45.625l3.755-0.967c1.877-0.284 5.632-0.853 8.59-0.853 15.872 0 29.696 8.932 38.002 24.462l256.398 549.49c6.428 13.824 3.925 30.094-6.372 41.529l-1.195 1.195c-10.695 10.695-29.412 13.255-39.31 10.866l-153.941-38.172 68.267 184.946c3.129 7.225 4.267 12.288 4.267 17.18 0 21.504-18.091 38.969-40.391 38.969h-156.217c-18.887 0-34.816-12.231-39.595-30.379l-95.858-393.785c-2.731-12.743 1.82-26.908 11.662-35.157 7.908-6.884 18.091-10.581 28.046-10.581 2.446 0 6.144 0 10.24 0.967l162.987 40.619zM238.234-15.69c-6.827 0-15.417 0.91-23.95 2.674l-7.452 1.877c-56.604 17.92-88.007 72.647-74.866 127.772l59.563 244.395-52.622-13.141c-12.288-3.015-22.528-3.015-26.908-3.015-26.567 0-53.077 9.842-72.647 27.079-28.615 23.666-42.268 64.228-34.133 102.684l96.313 395.435c12.8 48.697 56.434 82.261 106.212 82.261h156.217c60.188 0 109.17-48.299 109.17-107.748 0-14.564-3.129-29.013-9.387-43.008l-22.528-61.099 27.819 6.884c5.177 1.195 14.62 3.47 26.908 3.47 29.241 0 57.003-11.662 78.165-32.825l2.617-2.674c29.355-32.028 36.523-78.108 18.204-117.362l-257.195-551.14c-21.106-39.765-58.027-62.521-99.499-62.521v0z" />
<glyph unicode="&#xe902;" horiz-adv-x="626" d="M504.917 655.957c-4.267 4.267-10.012 7.111-16.213 7.111-1.877 0-3.812-0.455-5.689-0.967l-188.587-46.649 81.408 220.558c1.422 2.844 2.389 5.689 2.389 8.533 0 10.98-9.5 20.025-21.447 20.025h-156.217c-9.956 0-18.546-6.201-20.935-15.246l-95.744-392.932c-1.422-6.656 0.455-13.824 6.201-18.603 3.812-3.356 9.5-5.234 14.734-5.234 1.934 0 3.868 0 5.746 0.512l193.365 48.071-93.81-384.853c-2.389-10.012 3.812-19.968 14.279-23.324 2.389-0.455 4.779-0.967 6.656-0.967 8.59 0 16.213 4.779 20.025 11.89l257.195 551.14c3.3 7.111 1.877 15.189-3.356 20.935z" />
<glyph unicode="&#xe903;" horiz-adv-x="1195" d="M680.090 878.791c-239.104 0-433.664-194.56-433.664-433.664l-0.171-8.761c0-4.949 0.114-9.899 0.398-14.905-18.716 23.154-34.076 48.754-45.511 75.947-12.914 30.948-43.406 49.38-74.752 45.284-31.118-3.698-55.524-27.705-60.644-59.62-3.641-22.642-5.518-45.796-5.518-68.836 0-239.161 194.56-433.721 433.721-433.721 239.104 0 433.664 194.56 433.55 435.428l0.284 6.997c0 4.949-0.114 9.956-0.341 14.962 17.92-22.3 32.825-46.763 44.089-72.761 13.653-31.63 44.885-49.835 77.084-45.909 31.061 3.982 55.239 28.274 60.132 60.245 3.356 21.447 5.006 43.52 5.006 65.65 0 239.104-194.56 433.664-433.664 433.664z" />
<glyph unicode="&#xe904;" horiz-adv-x="1195" d="M134.975 508.905c-1.365 0-2.788-0.057-4.153-0.284-16.327-1.934-28.388-14.108-31.118-31.004-3.413-20.764-5.063-42.041-5.063-63.374 0-220.16 179.086-399.303 399.303-399.303 106.553 0 206.677 41.643 282.169 117.248 75.492 75.776 117.020 176.469 116.964 283.762l0.341 8.42c-0.057 3.072-0.171 7.509-0.341 12.060l-4.665 104.448 65.707-81.351c19.968-24.69 36.409-51.826 48.981-80.725 7.509-17.237 23.097-27.136 41.301-25.372 15.815 2.048 27.819 14.336 30.379 31.232 3.015 19.74 4.608 40.050 4.608 60.473 0 220.16-179.143 399.246-399.303 399.246s-399.303-179.086-399.303-399.246l-0.114-9.444c0-3.698 0.114-7.964 0.284-12.345l5.916-106.382-66.958 82.887c-20.764 25.714-37.774 54.044-50.46 84.252-6.315 15.132-20.082 24.804-34.475 24.804zM493.943-53.84c-258.105 0-468.082 210.034-468.082 468.082 0 24.974 1.991 50.005 5.973 74.354 7.509 47.218 43.861 82.716 90.396 88.235 38.116 5.234 75.435-12.345 98.020-43.634 41.188 215.893 231.708 379.961 459.833 379.961 258.048 0 468.082-209.977 468.082-468.025 0-23.95-1.877-47.844-5.404-70.884-7.225-47.275-43.349-83.058-89.771-89.088-38.684-5.006-76.004 11.776-99.157 42.496-17.237-91.534-61.554-176.299-129.081-243.996-88.405-88.633-205.881-137.5-330.809-137.5z" />
<glyph unicode="&#xe905;" horiz-adv-x="1195" d="M587.031 342.79c-48.014 0-86.869 38.912-86.869 86.869s38.855 86.869 86.869 86.869c47.957 0 86.812-38.912 86.812-86.869s-38.855-86.869-86.812-86.869zM680.101 820.599c-207.417 0-375.524-168.107-375.524-375.467 0-1.081 0.114-2.105 0.114-3.129-0.057-1.934-0.284-3.755-0.284-5.632 0-21.106 2.56-41.529 6.94-61.269 0.569-2.674 0.967-5.518 1.536-8.192 8.59-41.301-13.028-56.604-35.214-48.924-8.135 2.844-16.156 7.794-22.983 12.857-46.364 38.514-83.57 87.78-107.236 144.156-5.632 13.596-21.902 13.54-24.235-1.195-3.186-19.399-4.779-39.31-4.779-59.62 0-207.417 168.107-375.524 375.467-375.524 207.417 0 375.524 168.107 375.524 375.524 0 1.024-0.057 2.105-0.114 3.186 0.057 1.877 0.284 3.698 0.284 5.575 0 21.049-2.56 41.529-6.94 61.269-0.512 2.731-0.91 5.518-1.479 8.249-8.647 41.188 12.971 56.548 35.157 48.811 8.135-2.844 16.213-7.737 23.040-12.8 45.34-37.547 81.749-85.504 105.472-140.288 6.485-14.848 24.064-15.531 26.453 0.228 2.844 18.489 4.324 37.433 4.324 56.718 0 207.36-168.164 375.467-375.524 375.467z" />
<glyph unicode="&#xe906;" horiz-adv-x="910" d="M655.809 906.849c-50.119-13.141-69.006-45.966-82.83-69.86-2.503-4.38-5.177-8.932-8.476-14.222-16.555-26.681-96.996-49.948-155.762-67.015-59.221-17.124-115.2-33.337-155.022-59.335-148.423-96.54-219.989-251.676-182.215-395.264 4.722-18.318 11.093-36.011 19.285-53.76 2.674-5.461 6.201-10.695 10.638-16.953-2.446-3.413-5.006-6.94-7.225-9.842-23.609-31.801-55.865-75.378-42.894-124.757 5.348-20.423 15.986-31.004 21.675-36.636l3.527-3.641c18.318-18.261 48.981-48.811 104.846-34.133 48.811 12.8 64.512 64.341 76.004 102.002 0.512 1.707 1.081 3.527 1.65 5.404 5.234-1.081 10.468-2.276 14.62-3.129 15.701-3.584 30.492-6.884 43.122-7.68 121.003-8.647 247.694 35.556 345.429 121.856 128.455 112.185 186.937 238.706 178.972 386.844-1.877 33.337-6.94 65.764-15.019 96.427-0.569 2.219-59.221 212.878-170.325 183.694z" />
<glyph unicode="&#xe907;" horiz-adv-x="910" d="M675.812 875.071c-3.698 0-7.452-0.455-11.264-1.479-36.238-9.5-49.209-32.028-61.781-53.76-2.731-4.722-5.632-9.728-9.216-15.36-21.675-35.044-86.3-55.979-175.218-81.692-56.775-16.498-110.364-31.972-145.863-55.125-135.851-88.348-201.671-228.807-167.765-357.831 4.38-16.555 10.012-32.199 17.351-47.957 1.536-3.186 4.096-6.827 7.282-11.264l14.564-20.196-22.244-30.549c-20.423-27.42-45.909-61.781-37.148-95.232 3.072-11.435 8.42-16.725 12.629-20.935l4.039-4.153c20.139-20.082 37.148-34.076 71.396-24.86 27.989 7.339 39.652 38.628 51.883 78.791l1.877 5.916 9.444 29.241 45.454-9.387c13.938-3.129 26.681-6.144 37.66-6.827 113.721-8.078 229.945 33.28 320.512 113.323 120.149 104.789 174.82 222.208 167.424 359.253-1.82 31.061-6.485 61.269-13.881 89.486-9.842 35.612-56.946 160.597-117.134 160.597zM153.287-16.833c-52.85 0-85.504 32.597-101.035 48.071-10.354 10.354-26.396 26.226-34.19 55.808-15.815 60.188 16.327 110.080 41.927 145.067 0 0.057 0 0.114-0.057 0.171-9.33 20.196-16.327 39.595-21.732 60.132-41.529 158.151 35.612 328.021 196.779 432.868 44.032 28.672 102.343 45.625 164.068 63.488 36.921 10.695 122.994 35.556 136.476 52.508 2.958 4.722 5.404 8.932 7.68 12.914 14.962 25.884 39.936 69.12 103.879 85.902v0.057c145.579 38.741 211.684-205.71 212.309-208.213 8.647-32.597 14.052-67.3 16.1-103.196 8.59-159.573-53.817-295.196-190.692-414.663-104.277-92.103-239.388-139.89-370.46-130.276-10.24 0.626-20.992 2.503-32.199 4.836-14.45-40.789-38.457-86.414-92.103-100.523-13.198-3.413-25.372-4.949-36.75-4.949z" />
<glyph unicode="&#xe908;" horiz-adv-x="910" d="M576.751 565.345c-3.982 15.303-19.968 24.633-35.214 20.537-154.396-40.562-236.828-131.186-308.338-268.8-3.698-7.054-5.177-13.995-3.129-21.845 4.039-15.246 20.025-24.576 35.271-20.537 7.851 2.048 13.141 6.713 17.465 13.426 16.327 24.804 29.98 50.802 45.739 75.89 60.245 91.819 120.377 137.899 227.669 166.116 15.246 3.982 24.576 19.911 20.537 35.214zM777.284 710.354c7.339-27.876 11.776-57.060 13.483-86.471 7.68-142.905-56.377-253.952-161.792-345.941-51.029-45.113-112.299-79.872-178.574-97.28-41.87-10.98-86.869-15.36-130.105-12.288-22.756 1.479-71.851 17.977-89.259 13.369-21.788-5.746-24.576-101.547-62.521-111.502-27.477-7.225-39.31 4.096-56.377 21.049-5.86 6.372-9.614 8.249-12.004 17.408-11.89 45.34 65.138 103.31 58.482 128.569-1.024 3.982-18.432 24.064-22.471 32.37-6.485 14.108-11.833 29.070-15.815 44.316-36.466 138.638 47.844 266.638 160.882 340.139 81.579 53.134 280.747 68.665 326.258 142.165 18.091 28.558 24.519 52.11 61.099 61.781 49.266 12.914 98.987-110.649 108.715-147.684z" />
<glyph unicode="&#xe909;" horiz-adv-x="1252" d="M1182.418 358.849c-12.857 27.477-40.732 45.284-71.111 45.284h-125.099v51.655c0 88.633-72.135 160.768-160.768 160.768h-124.132c-2.162 74.638-63.488 134.599-138.638 134.599h-67.129v45.284c0 56.263-45.682 102.002-102.002 102.002h-15.36c-56.206 0-101.945-45.739-101.945-102.002v-179.883h-5.234c-43.236 0-78.507-35.214-78.507-78.507v-133.916h-35.556c-24.917 0-48.583-12.004-63.716-32.54-14.564-20.309-18.66-46.478-10.98-70.258l60.473-186.084c21.276-72.192 88.747-122.596 164.011-122.596h379.335c75.833 0 145.124 11.605 205.881 34.418 71.111 26.681 130.731 68.665 177.266 124.814l102.514 123.563c19.285 23.268 23.495 56.036 10.695 83.399z" />
<glyph unicode="&#xe90a;" horiz-adv-x="1252" d="M156.945 369.738c-14.052 0-27.477-6.884-35.954-18.489-8.021-11.15-10.354-25.941-6.030-39.31l60.473-186.084c17.237-58.539 71.111-98.759 131.3-98.759h379.335c71.737 0 136.932 10.809 193.82 32.142 65.422 24.633 120.206 63.204 162.873 114.688l102.514 123.506c10.809 13.028 13.141 31.46 5.973 46.876s-22.869 25.429-39.936 25.429h-159.516v86.073c0 69.689-56.661 126.35-126.407 126.35h-157.468l-0.967 33.394c-1.593 55.865-48.412 101.319-104.277 101.319h-101.49v79.588c0 37.262-30.379 67.584-67.641 67.584h-15.36c-37.262 0-67.584-30.322-67.584-67.584v-214.3h-34.361c-29.525 0-49.38-19.74-49.38-44.089v-168.334h-69.916zM686.069-41.682h-379.335c-90.453 0-171.463 60.53-197.006 147.172l-60.188 185.23c-11.036 34.133-5.12 71.851 15.815 100.921 21.618 29.412 55.751 46.876 91.591 46.876h1.195v99.556c0 52.167 35.556 96.142 83.684 109.056v149.333c0 75.207 61.156 136.363 136.363 136.363h15.36c75.207 0 136.42-61.156 136.42-136.363v-10.809h32.711c81.294 0 150.983-57.97 168.732-134.713h93.98c107.634 0 195.186-87.552 195.186-195.129v-17.294h90.738c43.634 0 83.797-25.543 102.286-65.138 18.318-39.367 12.288-86.414-15.417-119.865l-102.514-123.506c-50.347-60.757-114.802-106.268-191.602-135.111-64.626-24.292-137.956-36.58-217.998-36.58v0z" />
<glyph unicode="&#xe90b;" horiz-adv-x="1252" d="M400.282 520.516c17.465 0 31.573-14.165 31.573-31.573s-14.108-31.516-31.573-31.516c-17.408 0-31.573 14.108-31.573 31.516s14.165 31.573 31.573 31.573v0zM475.375 651.759h76.8c10.012 0 18.148-8.192 18.148-18.204s-8.135-18.148-18.148-18.148h-76.8c-10.012 0-18.148 8.135-18.148 18.148s8.135 18.204 18.148 18.204v0zM527.371 457.426c-17.465 0-31.573 14.108-31.573 31.516s14.108 31.573 31.573 31.573c17.408 0 31.573-14.165 31.573-31.573s-14.165-31.516-31.573-31.516v0zM654.404 520.516c17.408 0 31.573-14.165 31.573-31.573s-14.165-31.516-31.573-31.516c-17.408 0-31.516 14.108-31.516 31.516s14.108 31.573 31.516 31.573v0zM781.096 520.516c17.408 0 31.573-14.165 31.573-31.573s-14.165-31.516-31.573-31.516c-17.465 0-31.573 14.108-31.573 31.516s14.108 31.573 31.573 31.573v0zM925.821 408.843v55.012c0 55.41-45.056 100.466-100.409 100.466h-184.377v56.263c0 43.179-35.157 78.336-78.393 78.336h-127.431v105.586c0 22.983-18.66 41.643-41.643 41.643h-15.36c-22.983 0-41.643-18.66-41.643-41.643v-240.185h-65.479c-10.069 0-18.204-8.192-18.204-18.204v-137.273h672.939z" />
<glyph unicode="&#xe90c;" horiz-adv-x="1252" d="M1111.279 351.846h-954.311c-5.86 0-11.321-2.788-14.734-7.509s-4.38-10.752-2.56-16.27l60.928-187.676c13.824-46.706 57.401-79.303 106.155-79.303h379.278c68.551 0 130.731 10.24 184.718 30.606 61.156 22.926 112.299 58.88 152.064 106.894l102.457 123.506c4.494 5.404 5.404 12.914 2.446 19.285-3.015 6.372-9.387 10.468-16.441 10.468z" />
<glyph unicode="&#xe90d;" d="M944.447 854.96c-8.59 12.8-19.456 23.666-32.199 32.199-6.372 4.38-13.141 8.078-20.366 11.15-14.848 6.258-30.492 9.5-46.592 9.5h-390.144c-66.048 0-119.751-53.76-119.751-119.808v-158.663h-162.532c-66.105 0-119.808-53.703-119.808-119.694v-390.144c0-66.048 53.703-119.694 119.808-119.694h390.030c16.156 0 31.858 3.129 46.876 9.557 6.94 2.958 13.54 6.599 20.196 10.98 12.743 8.647 23.609 19.513 32.199 32.256 13.369 19.911 20.48 43.008 20.48 66.901v158.663h162.645c16.1 0 31.744 3.186 46.592 9.5 7.225 3.072 13.995 6.77 20.252 11.036 12.8 8.59 23.666 19.399 32.256 32.142 13.483 19.911 20.594 43.065 20.594 67.129v390.030c0 24.007-7.111 47.161-20.537 66.958z" />
<glyph unicode="&#xe90e;" d="M172.834 595.012c-47.104 0-85.39-38.286-85.39-85.39v-390.087c0-47.104 38.286-85.333 85.39-85.333h390.030c11.548 0 22.756 2.276 33.394 6.827 5.063 2.162 9.785 4.779 14.564 7.908 8.988 6.144 16.782 13.938 22.869 22.926 9.557 14.222 14.564 30.72 14.564 47.673v193.024h197.006c11.435 0 22.585 2.276 33.223 6.77 5.063 2.162 9.899 4.779 14.336 7.794 9.159 6.144 16.896 13.881 23.097 23.040 9.614 14.165 14.677 30.663 14.677 47.787v390.144c0 17.010-5.063 33.508-14.62 47.616v0.057c-6.144 9.102-13.881 16.782-22.983 23.040-4.608 3.072-9.444 5.689-14.564 7.851-10.468 4.494-21.675 6.77-33.166 6.77h-390.144c-47.047 0-85.333-38.286-85.333-85.333v-193.081h-196.949zM562.864-34.577h-390.030c-84.992 0-154.169 69.063-154.169 154.112v390.087c0 84.992 69.177 154.169 154.169 154.169h128.171v124.302c0 84.992 69.12 154.112 154.112 154.112h390.144c20.764 0 40.96-4.153 60.018-12.174 9.33-3.982 18.091-8.818 26.34-14.393 16.327-11.093 30.265-25.031 41.301-41.415 17.351-25.543 26.453-55.296 26.453-86.13v-390.144c0-30.948-9.159-60.757-26.51-86.357-11.15-16.441-25.145-30.436-41.529-41.472-7.964-5.348-16.725-10.183-25.998-14.108-19.172-8.135-39.367-12.231-60.075-12.231h-128.228v-124.245c0-30.72-9.102-60.473-26.34-86.13-10.98-16.27-24.917-30.208-41.415-41.472-8.647-5.803-17.18-10.411-26.055-14.165-19.115-8.192-39.424-12.345-60.359-12.345v0z" />
<glyph unicode="&#xe90f;" d="M790.778 678.793c-29.582 0-53.532 23.95-53.532 53.476 0 29.582 23.95 53.589 53.532 53.589s53.532-24.007 53.532-53.589c0-29.525-23.95-53.476-53.532-53.476zM790.778 400.151c-29.582 0-53.532 23.893-53.532 53.532 0 29.525 23.95 53.476 53.532 53.476s53.532-23.95 53.532-53.476c0-29.639-23.95-53.532-53.532-53.532zM509.633 678.793c-29.582 0-53.532 23.95-53.532 53.476 0 29.582 23.95 53.589 53.532 53.589s53.532-24.007 53.532-53.589c0-29.525-23.95-53.476-53.532-53.476zM845.278 848.777h-390.087c-4.21 0-8.306-0.398-12.231-1.195-11.833-2.446-22.471-8.363-30.72-16.612-11.036-11.036-17.863-26.226-17.863-42.951v-156.843h168.505c67.072 0 121.572-54.556 121.572-121.572v-172.487h160.825c33.394 0 60.757 27.42 60.757 60.814v390.087c0 33.451-27.364 60.757-60.757 60.757z" />
<glyph unicode="&#xe910;" d="M508.444 121.737c-29.582 0-53.532 23.95-53.532 53.476 0 29.582 23.95 53.589 53.532 53.589s53.532-24.007 53.532-53.589c0-29.525-23.95-53.476-53.532-53.476zM367.872 261.001c-29.582 0-53.532 24.007-53.532 53.589 0 29.525 23.95 53.476 53.532 53.476 0.512 0 1.024-0.114 1.593-0.114 28.786-0.91 51.94-24.405 51.94-53.362 0-0.398-0.114-0.796-0.114-1.138-0.626-29.070-24.235-52.452-53.419-52.452zM227.3 400.321c-29.582 0-53.532 23.95-53.532 53.589 0 29.525 23.95 53.476 53.532 53.476 29.525 0 53.532-23.95 53.532-53.476 0-29.639-24.007-53.589-53.532-53.589zM227.3 121.737c-29.582 0-53.532 23.95-53.532 53.476 0 29.582 23.95 53.589 53.532 53.589 29.525 0 53.532-24.007 53.532-53.589 0-29.525-24.007-53.476-53.532-53.476zM508.444 507.386c3.868 0 7.623-0.455 11.264-1.195 24.178-5.177 42.268-26.624 42.268-52.281 0-29.639-23.95-53.589-53.532-53.589-3.47 0-6.827 0.398-10.126 1.024-24.69 4.779-43.406 26.453-43.406 52.565 0 29.525 23.95 53.476 53.532 53.476zM596.85 559.952c-3.243 2.219-6.713 4.096-10.354 5.689-7.282 3.015-15.246 4.779-23.609 4.779h-390.087c-33.394 0-60.757-27.364-60.757-60.814v-390.087c0-33.451 27.364-60.757 60.757-60.757h390.087c8.363 0 16.327 1.707 23.609 4.779 3.641 1.536 7.111 3.413 10.354 5.575 6.428 4.38 12.060 10.012 16.441 16.441 6.542 9.728 10.411 21.39 10.411 33.963v390.087c0 12.516-3.868 24.235-10.411 33.906-4.38 6.485-10.012 12.117-16.441 16.441z" />
<glyph unicode="&#xe911;" horiz-adv-x="740" d="M627.12 546.588c-42.098 59.904-120.377 171.406-152.519 278.3-12.686 45.454-54.556 77.198-101.945 77.198-46.251 0-88.064-31.232-101.604-76.004-32.484-108.089-110.763-219.591-152.86-279.495-10.069-14.336-18.148-25.884-23.552-34.418-33.906-54.215-51.826-115.314-51.826-176.754 0-181.874 147.968-329.842 329.842-329.842s329.842 147.968 329.842 329.842c0 62.407-18.034 123.733-52.11 177.209-5.12 8.078-13.198 19.627-23.268 33.963z" />
<glyph unicode="&#xe912;" horiz-adv-x="740" d="M372.668 867.681c-31.289 0-59.506-21.22-68.722-51.541-34.020-113.266-114.404-227.783-157.639-289.337-9.614-13.71-17.408-24.747-22.528-32.939-30.492-48.697-46.592-103.538-46.592-158.436 0-162.93 132.551-295.481 295.481-295.481s295.424 132.551 295.424 295.481c0 55.865-16.1 110.763-46.706 158.72l-0.057 0.114c-4.892 7.737-12.686 18.773-22.3 32.54-43.236 61.554-123.62 176.071-157.355 288.256-8.704 31.232-37.035 52.622-69.006 52.622zM372.668-28.831c-200.818 0-364.26 163.385-364.26 364.26 0 67.868 19.74 135.225 57.116 194.958 5.689 8.988 14.052 20.992 24.576 35.954 40.903 58.368 117.134 166.912 148.025 269.596 17.92 59.221 73.216 100.523 134.542 100.523 62.748 0 118.272-42.041 135.054-102.286 30.322-100.921 106.61-209.465 147.513-267.833 10.468-14.905 18.773-26.852 24.178-35.214 37.604-59.051 57.458-126.748 57.458-195.698 0-200.875-163.385-364.26-364.203-364.26z" />
<glyph unicode="&#xe913;" horiz-adv-x="740" d="M372.668 267.736c0 13.198-4.267 25.884-10.581 36.523-6.884 10.524-34.873 46.478-46.023 81.863-1.536 5.86-6.827 8.476-11.036 8.476-4.267 0-9.557-2.617-11.15-8.476-11.093-35.385-39.083-71.339-45.966-81.863-6.372-10.638-10.581-23.324-10.581-36.523 0-37.49 30.151-67.641 67.698-67.641 37.49 0 67.641 30.151 67.641 67.641zM643.288 335.377c0-149.561-121.060-270.62-270.62-270.62-149.618 0-270.677 121.060-270.677 270.62 0 53.419 16.384 103.083 42.837 145.408 26.965 42.268 140.117 185.515 182.898 328.249 6.884 22.699 28.046 33.792 44.942 33.792s38.571-11.093 44.942-33.792c42.78-142.734 155.932-285.98 182.841-328.249 27.022-42.325 42.837-91.989 42.837-145.408z" />
<glyph unicode="&#xe914;" glyph-name="hurricane-simple" horiz-adv-x="1229" d="M622.469 351.259c-60.962 0-110.319 49.425-110.319 110.319 0 60.962 49.357 110.319 110.319 110.319s110.319-49.357 110.319-110.319c0-60.894-49.357-110.319-110.319-110.319zM740.707 958.355c-263.441 0-477.047-213.606-477.047-477.116l0.137-3.959-0.341-7.168c0-26.761 3.277-52.702 8.806-77.756l1.911-10.513c10.991-52.361-16.521-71.817-44.715-62.054-10.308 3.618-20.548 9.899-29.218 16.247-58.914 48.947-106.086 111.548-136.192 183.228-7.168 17.271-27.853 17.135-30.857-1.57-3.959-24.644-6.076-49.903-6.076-75.708 0-263.441 213.606-477.047 477.116-477.047 263.441 0 477.047 213.606 477.047 477.047l-0.137 4.028 0.341 7.1c0 26.761-3.277 52.77-8.875 77.824l-1.843 10.445c-10.991 52.429 16.521 71.885 44.715 62.054 10.308-3.55 20.548-9.899 29.218-16.247 57.549-47.787 103.902-108.681 134.007-178.244 8.192-18.842 30.583-19.661 33.587 0.273 3.618 23.415 5.53 47.514 5.53 72.021 0 263.509-213.606 477.116-477.116 477.116z" />
<glyph unicode="&#xe915;" glyph-name="ship-simple" horiz-adv-x="1280" d="M358.189 520.429c20.864 0 37.824-17.024 37.824-37.888 0-20.928-16.96-37.888-37.824-37.888-20.928 0-37.888 16.96-37.888 37.888 0 20.864 16.96 37.888 37.888 37.888v0zM448.301 677.805h92.096c11.968 0 21.76-9.728 21.76-21.76s-9.792-21.824-21.76-21.824h-92.096c-12.032 0-21.824 9.792-21.824 21.824s9.792 21.76 21.824 21.76v0zM510.637 444.653c-20.928 0-37.888 16.96-37.888 37.888 0 20.864 16.96 37.888 37.888 37.888 20.864 0 37.824-17.024 37.824-37.888 0-20.928-16.96-37.888-37.824-37.888v0zM663.085 520.429c20.864 0 37.76-17.024 37.76-37.888 0-20.928-16.896-37.888-37.76-37.888-20.928 0-37.888 16.96-37.888 37.888 0 20.864 16.96 37.888 37.888 37.888v0zM815.021 520.429c20.864 0 37.824-17.024 37.824-37.888 0-20.928-16.96-37.888-37.824-37.888-20.928 0-37.888 16.96-37.888 37.888 0 20.864 16.96 37.888 37.888 37.888v0zM988.653 386.413v66.048c0 66.496-54.080 120.448-120.448 120.448h-221.248v67.52c0 51.904-42.112 94.016-94.016 94.016h-152.896v126.656c0 27.584-22.4 49.984-49.92 49.984h-18.432c-27.584 0-49.92-22.4-49.92-49.984v-288.192h-78.656c-11.968 0-21.76-9.728-21.76-21.76v-164.736h807.296zM1211.123 318.054h-222.528v1.728h-807.232v-1.728h-115.136c-6.976 0-13.504-3.328-17.6-8.96-4.16-5.696-5.248-12.928-3.136-19.52l73.152-225.152c16.512-56.064 68.864-95.104 127.296-95.104h455.040c82.176 0 156.8 12.288 221.568 36.672 73.344 27.52 134.72 70.72 182.4 128.192l122.944 148.16c5.376 6.528 6.528 15.616 2.944 23.232s-11.264 12.48-19.712 12.48z" />
<glyph unicode="&#xe916;" glyph-name="leaf-simple" horiz-adv-x="910" d="M605.275 581.382c-5.746 19.058-26.226 30.094-45.284 24.405-192.796-57.742-292.807-175.445-377.003-351.972-4.437-9.045-5.916-17.806-3.072-27.591 5.746-19.058 26.226-30.094 45.284-24.462 9.842 2.958 16.327 9.045 21.447 17.749 19.513 31.915 35.612 65.195 54.443 97.564 72.021 118.272 145.806 178.916 279.723 218.965 19.058 5.746 30.151 26.226 24.462 45.34zM851.775 772.585c10.468-34.816 17.237-71.339 20.537-108.316 15.929-179.769-60.075-322.389-188.985-442.823-62.464-59.051-138.126-105.472-220.9-130.219-52.281-15.644-108.772-23.040-163.385-20.992-28.786 0.853-91.25 19.513-113.038 12.971-27.307-8.078-26.681-128.967-74.069-143.132-34.247-10.297-49.664 3.47-71.908 24.121-7.623 7.794-12.402 9.899-15.872 21.333-16.953 56.604 77.653 133.006 68.21 164.636-1.479 4.892-24.235 29.468-29.696 39.708-8.761 17.579-16.156 36.124-21.845 55.182-51.826 173.17 48.868 338.034 188.245 435.484 100.523 70.428 350.834 98.532 404.992 193.081 21.675 36.693 28.729 66.731 74.411 80.384 61.554 18.432 129.479-135.054 143.303-181.419z" />
<glyph unicode="&#xe917;" glyph-name="bolt-simple" horiz-adv-x="593" d="M534.442 677.144l-6.845-1.132-226.25-55.943 97.711 264.461 2.856 10.24c0 13.15-11.426 24.037-25.762 24.037h-187.338c-12.019 0-22.312-7.437-25.115-18.27l-114.85-471.309c-1.725-8.030 0.593-16.6 7.437-22.259 4.581-4.042 11.372-6.36 17.731-6.36l6.845 0.593 231.909 57.721-112.586-461.608c-2.803-12.019 4.581-23.929 17.192-27.971l7.976-1.132c10.294 0 19.456 5.659 24.037 14.282l308.44 660.965c3.988 8.515 2.317 18.27-3.988 25.115-5.174 5.174-12.019 8.569-19.402 8.569z" />
<glyph unicode="&#xe918;" glyph-name="risk-simple" horiz-adv-x="1088" d="M881.811 739.309c-38.144 0-68.992 30.848-68.992 68.928 0 38.144 30.848 68.992 68.992 68.992 38.080 0 68.992-30.848 68.992-68.992 0-38.080-30.912-68.928-68.992-68.928zM881.811 380.269c-38.144 0-68.992 30.848-68.992 68.992 0 38.016 30.848 68.928 68.992 68.928 38.080 0 68.992-30.912 68.992-68.928 0-38.144-30.912-68.992-68.992-68.992zM519.507 739.309c-38.144 0-68.992 30.848-68.992 68.928 0 38.144 30.848 68.992 68.992 68.992 38.080 0 68.992-30.848 68.992-68.992 0-38.080-30.912-68.928-68.992-68.928zM952.019 958.445h-502.72l-15.744-1.664c-15.232-3.072-28.928-10.752-39.552-21.376-14.208-14.208-22.976-33.792-22.976-55.36v-202.048h217.088c86.464 0 156.672-70.272 156.672-156.672v-222.272h207.232c43.072 0 78.272 35.264 78.272 78.4v502.592c0 43.136-35.2 78.4-78.272 78.4zM517.939 21.491c-38.080 0-68.928 30.848-68.928 68.928 0 38.144 30.848 68.992 68.928 68.992 38.144 0 68.992-30.848 68.992-68.992 0-38.080-30.848-68.928-68.992-68.928zM336.819 201.011c-38.144 0-68.992 30.848-68.992 68.992 0 38.080 30.848 68.992 68.992 68.992l2.048-0.256c37.12-1.152 66.944-31.36 66.944-68.736l-0.192-1.536c-0.832-37.376-31.232-67.456-68.8-67.456zM155.635 380.531c-38.080 0-68.928 30.912-68.928 68.928 0 38.144 30.848 69.056 68.928 69.056 38.144 0 68.992-30.912 68.992-69.056 0-38.016-30.848-68.928-68.992-68.928zM155.635 21.491c-38.080 0-68.928 30.848-68.928 68.928 0 38.144 30.848 68.992 68.928 68.992 38.144 0 68.992-30.848 68.992-68.992 0-38.080-30.848-68.928-68.992-68.928zM517.939 518.515l14.592-1.664c31.104-6.656 54.4-34.24 54.4-67.392 0-38.016-30.848-68.928-68.992-68.928l-12.992 1.344c-31.872 6.080-55.936 33.984-55.936 67.584 0 38.144 30.848 69.056 68.928 69.056zM631.859 586.227l-13.312 7.296c-9.344 3.904-19.584 6.144-30.4 6.144h-502.656c-43.136 0-78.336-35.264-78.336-78.336v-502.656c0-43.136 35.2-78.4 78.336-78.4h502.656c10.816 0 21.056 2.24 30.4 6.208l13.312 7.232c8.32 5.632 15.552 12.928 21.184 21.184 8.448 12.544 13.44 27.584 13.44 43.776v502.656c0 16.192-4.992 31.232-13.44 43.712-5.632 8.32-12.864 15.552-21.184 21.184z" />
<glyph unicode="&#xe919;" glyph-name="water-simple" horiz-adv-x="704" d="M349.811 220.371c0 16.96-5.44 33.216-13.568 46.72-8.832 13.632-44.736 59.776-59.008 105.216-2.048 7.424-8.768 10.88-14.208 10.88s-12.224-3.456-14.272-10.88c-14.272-45.44-50.176-91.584-59.008-105.216-8.192-13.504-13.568-29.76-13.568-46.72 0-48.192 38.656-86.848 86.848-86.848 48.128 0 86.784 38.656 86.784 86.848zM697.203 307.155c0-192-155.392-347.264-347.392-347.264s-347.328 155.264-347.328 347.264c0 68.544 20.992 132.288 54.976 186.56 34.624 54.272 179.712 238.144 234.752 421.312 8.768 29.184 35.904 43.392 57.6 43.392 21.76 0 49.536-14.208 57.664-43.392 54.976-183.168 200.128-367.040 234.688-421.312 34.624-54.272 55.040-118.016 55.040-186.56z" />
</font>
</defs>
</svg>
